<svg xmlns="http://www.w3.org/2000/svg" width="352.276" height="23.68" viewBox="0 0 352.276 23.68">
  <path id="Path_274" data-name="Path 274" d="M1.036-23.68A9.586,9.586,0,0,1,1.48-20.5V-3.182A9.586,9.586,0,0,1,1.036,0H20.461l.592-3.589a9.929,9.929,0,0,1-3.663.555H8.436V-20.5A9.586,9.586,0,0,1,8.88-23.68ZM30.9-9.842v-3.552c0-.925.259-1.258,1.11-1.258h5.7c.851,0,1.11.333,1.11,1.258v3.552ZM45.251-7.1v-5.624c0-3.219-1.406-4.662-4.366-4.662H28.823c-2.96,0-4.366,1.443-4.366,4.662v8.066C24.457-1.443,25.863,0,28.823,0h15.91l.518-2.96a11.29,11.29,0,0,1-2.035.222H32c-.851,0-1.11-.333-1.11-1.258V-7.1Zm24.568-5.624c0-3.219-1.406-4.662-4.366-4.662H50.061l-.407,2.96a11.03,11.03,0,0,1,3.108-.37h9.694c.592,0,.925.222.925.814v1.11c0,.592-.333.814-.925.814H53.391c-3.034,0-4.366,1.258-4.366,6.031S50.357,0,53.391,0h7.992c1.3,0,1.924-.407,2.479-1.813h.074L64.232,0h5.957a14.484,14.484,0,0,1-.37-3.922Zm-6.438,3.4V-4c0,.925-.259,1.258-1.11,1.258h-5.7c-.851,0-1.11-.333-1.11-1.258v-4.07c0-.925.259-1.258,1.11-1.258Zm25.2-8.066H83.324c-2,0-2.812.481-3,1.887h-.074l-.259-1.887H73.815a14.484,14.484,0,0,1,.37,3.922v9.546A14.484,14.484,0,0,1,73.815,0h7.178a14.484,14.484,0,0,1-.37-3.922v-9.065c0-.592.407-.925,1.11-.925h2.442a18.661,18.661,0,0,1,4.4.37Zm2.775,0a14.484,14.484,0,0,1,.37,3.922v9.546A14.484,14.484,0,0,1,91.353,0h7.178a14.484,14.484,0,0,1-.37-3.922v-9.472c0-.925.259-1.258,1.11-1.258h5.476c.851,0,1.11.333,1.11,1.258v9.472A14.484,14.484,0,0,1,105.487,0h7.178a14.484,14.484,0,0,1-.37-3.922v-8.806c0-3.219-1.406-4.662-4.366-4.662h-7.918c-1.073,0-1.554.407-2,1.776h-.074l-.148-1.776ZM140.822,0l5.4-21.756h.074L152.144,0h4.4l4.847-19.351a13.856,13.856,0,0,1,1.591-4.329h-3a13.8,13.8,0,0,1-.333,3.552l-4.44,18.056h-.074l-5.7-21.608h-4.625l-5.4,21.608h-.074L134.754-19.61a14.1,14.1,0,0,1-.481-2.664,8.2,8.2,0,0,1,.148-1.406h-4.773c.481,1.3,1.184,3.256,1.628,4.921L136.345,0Zm28.527-17.39h-3.441a14.3,14.3,0,0,1,.333,3.7V-3.7a14.3,14.3,0,0,1-.333,3.7h3.774a14.3,14.3,0,0,1-.333-3.7Zm-3.108-2.146h3.108v-2.516h-3.108Zm21.83,3.848v-1.7h-8.658v-4.033l-3.108.592v3.441h-2.7v1.7h2.7V-4.514C176.3-1.036,177.489,0,180.819,0H188.7l.259-2.035a14.3,14.3,0,0,1-3.7.333H181c-1.295,0-1.591-.37-1.591-1.924V-15.688ZM192.141-3.7a14.3,14.3,0,0,1-.333,3.7h3.774a14.3,14.3,0,0,1-.333-3.7V-13.764c0-1.554.3-1.924,1.591-1.924h9.953c1.295,0,1.591.37,1.591,1.924V-3.7a14.3,14.3,0,0,1-.333,3.7h3.774a14.3,14.3,0,0,1-.333-3.7v-9.176c0-3.478-1.184-4.514-4.514-4.514H197.4a2.793,2.793,0,0,0-1.406.259,1.823,1.823,0,0,0-.666.925h-.074V-23.68h-3.441a14.3,14.3,0,0,1,.333,3.7Zm53.835-3.034,1.258,2.812a9.161,9.161,0,0,1,1,3.367,2.239,2.239,0,0,1-.074.555h8.732c-.814-.74-1.517-2.257-2.516-4.477l-8.732-19.2H237.91l1,1.554L231.028-4.551A23.547,23.547,0,0,1,228.512,0h4.551a8.254,8.254,0,0,1,.629-3.182l1.517-3.552Zm-9.361-3.034,3.959-8.954,4.033,8.954Zm43.105-2.96c0-3.219-1.406-4.662-4.366-4.662H259.962l-.407,2.96a11.03,11.03,0,0,1,3.108-.37h9.694c.592,0,.925.222.925.814v1.11c0,.592-.333.814-.925.814h-9.065c-3.034,0-4.366,1.258-4.366,6.031S260.258,0,263.292,0h7.992c1.3,0,1.924-.407,2.479-1.813h.074l.3,1.813h5.957a14.485,14.485,0,0,1-.37-3.922Zm-6.438,3.4V-4c0,.925-.259,1.258-1.11,1.258h-5.7c-.851,0-1.11-.333-1.11-1.258v-4.07c0-.925.259-1.258,1.11-1.258Zm29.822,1.3q0-3.885-4.44-3.885h-7.918c-.777,0-1.147-.333-1.147-1.036v-.814c0-.7.37-1.036,1.147-1.036h8.14a12.442,12.442,0,0,1,4.218.407l-.481-3H287.268c-2.664,0-3.959,1.48-3.959,4.7v2.109c0,3.219,1.3,4.736,3.959,4.736h8.177c.851,0,1.369.444,1.369,1.147v.962c0,.7-.518,1.147-1.369,1.147H287.6A12.442,12.442,0,0,1,283.383-3l.481,3h14.8q4.44,0,4.44-3.885Zm4.218-9.361a14.484,14.484,0,0,1,.37,3.922v9.546A14.484,14.484,0,0,1,307.322,0H314.5a14.484,14.484,0,0,1-.37-3.922V-17.39Zm.481-5.846v4.144h6.216v-4.144Zm11.174,5.846a14.485,14.485,0,0,1,.37,3.922v9.546A14.485,14.485,0,0,1,318.977,0h7.178a14.484,14.484,0,0,1-.37-3.922v-9.472c0-.925.259-1.258,1.11-1.258h4.921c.851,0,1.11.333,1.11,1.258v9.472A14.485,14.485,0,0,1,332.556,0h7.178a14.485,14.485,0,0,1-.37-3.922v-9.472c0-.925.259-1.258,1.11-1.258h4.921c.851,0,1.11.333,1.11,1.258v9.472A14.483,14.483,0,0,1,346.135,0h7.178a14.485,14.485,0,0,1-.37-3.922v-8.806c0-3.219-1.406-4.662-4.366-4.662h-7.363c-1.073,0-1.554.407-2.109,1.776h.074c-.444-1.48-.851-1.776-2.664-1.776h-8.88a1.956,1.956,0,0,0-1.258.37,2.747,2.747,0,0,0-.74,1.406h-.074l-.148-1.776Z" transform="translate(-1.036 23.68)" fill="#00c2ff"/>
</svg>
